<?xml version="1.0" encoding="utf-8"?>
<!-- Generator: Adobe Illustrator 15.0.2, SVG Export Plug-In . SVG Version: 6.00 Build 0)  -->
<!DOCTYPE svg PUBLIC "-//W3C//DTD SVG 1.1//EN" "http://www.w3.org/Graphics/SVG/1.1/DTD/svg11.dtd">
<svg version="1.1" id="Layer_1" xmlns="http://www.w3.org/2000/svg" xmlns:xlink="http://www.w3.org/1999/xlink" x="0px" y="0px"
	 width="160px"  viewBox="0 0 1024 232.957" enable-background="new 0 0 1024 232.957" xml:space="preserve">
<rect fill="none" width="1024" height="232.957"/>
<g>
	<g>
		<g>
			<path fill="#FFFFFF" d="M107.363,160.031h36.868c7.292,0,16.408-3.849,20.257-8.71l36.058-43.958
				c3.849-4.659,1.013-8.711-6.28-8.711h-36.868c-7.293,0-16.409,3.849-20.257,8.711l-36.058,44.16
				C97.234,156.183,100.07,160.031,107.363,160.031z"/>
			<path fill="#FFFFFF" d="M20.055,160.031h36.868c7.292,0,16.408-3.849,20.257-8.71l36.058-43.958
				c3.849-4.659,1.013-8.711-6.28-8.711H70.09c-7.292,0-16.408,3.849-20.257,8.711l-35.855,44.16
				C9.926,156.183,12.762,160.031,20.055,160.031z"/>
			<path fill="#FFFFFF" d="M107.363,22.08h36.868c7.292,0,16.408,3.849,20.257,8.71l36.058,43.958c3.849,4.659,1.013,8.71-6.28,8.71
				h-36.868c-7.293,0-16.409-3.849-20.257-8.71l-36.058-43.958C97.234,25.929,100.07,22.08,107.363,22.08z"/>
			<g>
				<path fill="#FFFFFF" d="M20.055,22.08h36.868c7.292,0,16.408,3.849,20.257,8.71l35.855,43.958c3.849,4.659,1.013,8.71-6.28,8.71
					H70.09c-7.292,0-16.408-3.849-20.257-8.71L13.978,30.791C9.926,25.929,12.762,22.08,20.055,22.08z"/>
			</g>
		</g>
		<path fill="#FFFFFF" d="M362.198,103.514h-90.347c1.418,22.891,17.624,35.248,34.032,35.45c15.396,0,27.347-7.09,32.209-19.244
			h21.27c-3.039,17.826-18.637,39.704-53.276,39.501c-36.058,0-58.948-27.752-58.948-63.607c0-36.058,21.27-63.202,58.948-63.202
			c34.842,0,56.518,24.916,56.518,62.797C362.604,97.64,362.604,100.678,362.198,103.514z M272.256,85.08h66.039
			c-2.229-19.447-13.167-32.209-32.412-32.209C286.234,52.871,275.295,66.038,272.256,85.08z"/>
		<path fill="#FFFFFF" d="M442.417,158.613H417.5L368.073,34.234h28.158l34.032,94.398l34.031-94.398h27.955L442.417,158.613z"/>
		<path fill="#FFFFFF" d="M614.4,103.514h-90.348c1.418,22.891,17.624,35.248,34.032,35.45c15.396,0,27.348-7.09,32.209-19.244
			h21.27c-3.038,17.826-18.636,39.704-53.276,39.501c-36.058,0-58.948-27.752-58.948-63.607c0-36.058,21.271-63.202,58.948-63.202
			c34.843,0,56.518,24.916,56.518,62.797C614.805,97.64,614.805,100.678,614.4,103.514z M524.458,85.08h66.038
			c-2.228-19.447-13.167-32.209-32.411-32.209C538.436,52.871,527.497,66.038,524.458,85.08z"/>
		<path fill="#FFFFFF" d="M713.255,54.694c-27.145-1.216-45.578,10.736-45.578,40.312v63h-26.132V33.222h23.903l2.229,20.864
			c4.456-10.735,16.813-22.89,45.781-22.282L713.255,54.694z"/>
		<polygon fill="#FFFFFF" points="964.849,34.234 929.196,125.594 890.91,34.234 865.184,34.234 916.637,158.208 892.126,218.979 
			915.826,218.979 990.171,34.234 		"/>
		<path fill="#FFFFFF" d="M824.67,34.64l-5.673,12.56c0,0-11.141-13.978-36.26-13.978c-30.791,0-57.125,26.537-57.125,61.379
			c0,34.843,26.536,61.38,57.125,61.38c23.701,0,34.842-13.978,34.842-13.978v20.864c0,16.611-10.533,28.36-27.145,30.386l0,0
			c-1.823,0.203-3.646,0.405-5.469,0.608c-17.017,0-30.386-7.698-35.653-21.271h-23.498c3.241,19.853,20.46,43.958,58.948,43.553
			c4.254,0,8.508-0.405,12.56-1.013l0,0c27.955-4.456,45.376-25.119,45.376-52.061V34.64H824.67z M785.775,132.279
			c-18.434,0-35.247-16.813-35.247-37.679c0-20.864,16.813-37.678,34.842-37.678c18.231,0,34.843,16.813,34.843,37.678
			C820.415,115.668,803.602,132.279,785.775,132.279z"/>
	</g>
</g>
<g>
	<path fill="#FFFFFF" d="M972.749,146.864h-4.254v11.749h-2.836v-11.749h-4.254v-2.431h11.547v2.431H972.749z"/>
	<path fill="#FFFFFF" d="M979.231,144.434l3.646,10.331l3.646-10.331h3.849v14.18h-2.836v-3.849l0.202-6.685l-3.849,10.533h-2.025
		l-3.849-10.533l0.202,6.685v3.849h-2.836v-14.18H979.231z"/>
</g>
</svg>
