<svg width="495" height="495" viewBox="0 0 495 495" fill="none" xmlns="http://www.w3.org/2000/svg">
<g opacity="0.5">
<path fill-rule="evenodd" clip-rule="evenodd" d="M247.5 477C374.249 477 477 374.249 477 247.5C477 120.751 374.249 18 247.5 18C120.751 18 18 120.751 18 247.5C18 374.249 120.751 477 247.5 477ZM247.5 436C351.606 436 436 351.606 436 247.5C436 143.394 351.606 59 247.5 59C143.394 59 59 143.394 59 247.5C59 351.606 143.394 436 247.5 436Z" fill="#666464"/>
<path d="M298.849 227H473V268H299.251C291.25 288.487 271.32 303 248 303C224.68 303 204.75 288.487 196.749 268H23V227H197.151C205.403 207.043 225.061 193 248 193C270.939 193 290.597 207.043 298.849 227Z" fill="#666464"/>
</g>
</svg>
